<?xml version="1.0" encoding="utf-8"?>
<svg width="50px" height="46px" viewBox="0 0 50 46" version="1.1" xmlns:xlink="http://www.w3.org/1999/xlink" xmlns="http://www.w3.org/2000/svg">
  <defs>
    <path d="M0 0L15 0L15 15L0 15L0 0Z" id="path_1" />
    <clipPath id="clip_1">
      <use xlink:href="#path_1" />
    </clipPath>
  </defs>
  <g id="Group" transform="translate(-14 315)">
    <path d="M2.999 0L47.001 0Q47.1483 0 47.295 0.014441Q47.4416 0.028882 47.5861 0.0576249Q47.7306 0.0863679 47.8716 0.129136Q48.0126 0.171904 48.1487 0.228285Q48.2848 0.284667 48.4147 0.354118Q48.5447 0.42357 48.6671 0.505423Q48.7896 0.587276 48.9035 0.680742Q49.0174 0.774208 49.1216 0.878387Q49.2258 0.982566 49.3193 1.09645Q49.4127 1.21034 49.4946 1.33284Q49.5764 1.45535 49.6459 1.58528Q49.7153 1.71522 49.7717 1.85133Q49.8281 1.98745 49.8709 2.12844Q49.9136 2.26942 49.9424 2.41392Q49.9711 2.55842 49.9856 2.70505Q50 2.85167 50 2.999L50 43.001Q50 43.1483 49.9856 43.295Q49.9711 43.4416 49.9424 43.5861Q49.9136 43.7306 49.8709 43.8716Q49.8281 44.0125 49.7717 44.1487Q49.7153 44.2848 49.6459 44.4147Q49.5764 44.5447 49.4946 44.6672Q49.4127 44.7897 49.3193 44.9035Q49.2258 45.0174 49.1216 45.1216Q49.0174 45.2258 48.9035 45.3193Q48.7896 45.4127 48.6671 45.4946Q48.5447 45.5764 48.4147 45.6459Q48.2848 45.7153 48.1487 45.7717Q48.0126 45.8281 47.8716 45.8709Q47.7306 45.9136 47.5861 45.9424Q47.4416 45.9711 47.295 45.9856Q47.1483 46 47.001 46L2.999 46Q2.85167 46 2.70505 45.9856Q2.55842 45.9711 2.41392 45.9424Q2.26942 45.9136 2.12844 45.8709Q1.98745 45.8281 1.85133 45.7717Q1.71522 45.7153 1.58528 45.6459Q1.45535 45.5764 1.33284 45.4946Q1.21034 45.4127 1.09645 45.3193Q0.982566 45.2258 0.878387 45.1216Q0.774208 45.0174 0.680742 44.9035Q0.587276 44.7897 0.505423 44.6672Q0.42357 44.5447 0.354118 44.4147Q0.284667 44.2848 0.228285 44.1487Q0.171904 44.0125 0.129136 43.8716Q0.0863679 43.7306 0.0576249 43.5861Q0.028882 43.4416 0.014441 43.295Q0 43.1483 0 43.001L0 2.999Q0 2.85167 0.014441 2.70505Q0.028882 2.55842 0.0576249 2.41392Q0.0863679 2.26942 0.129136 2.12844Q0.171904 1.98745 0.228285 1.85133Q0.284667 1.71522 0.354118 1.58528Q0.42357 1.45535 0.505423 1.33284Q0.587276 1.21034 0.680742 1.09645Q0.774208 0.982566 0.878387 0.878387Q0.982566 0.774208 1.09645 0.680742Q1.21034 0.587276 1.33284 0.505423Q1.45535 0.42357 1.58528 0.354118Q1.71522 0.284667 1.85133 0.228285Q1.98745 0.171904 2.12844 0.129136Q2.26942 0.0863679 2.41392 0.0576249Q2.55842 0.028882 2.70505 0.014441Q2.85167 0 2.999 0L2.999 0Z" id="Rectangle" fill="#536DFE" fill-rule="evenodd" stroke="none" />
    <path d="M4.98153 36.0909L4.98153 9.90909L22.8537 9.90909L22.8537 15.0483L16.8133 12L11.3097 15.0483L11.3097 20.4176L46 20.4176L46 25.5696L11.3097 25.5696L11.3097 36.0909L4.98153 36.0909Z" id="F" fill="#FC4850" fill-rule="evenodd" stroke="none" />
    <path d="M29.6676 35.8466L29.6676 29.3012L30.6392 29.3012L30.6392 30.3239L30.7244 30.3239C30.8608 29.9745 31.081 29.7024 31.3849 29.5078C31.6889 29.3132 32.054 29.2159 32.4801 29.2159C32.9119 29.2159 33.272 29.3132 33.5604 29.5078C33.8487 29.7024 34.0739 29.9745 34.2358 30.3239L34.304 30.3239C34.4716 29.9858 34.723 29.7166 35.0582 29.5164C35.3935 29.3161 35.7955 29.2159 36.2642 29.2159C36.8494 29.2159 37.3281 29.3985 37.7003 29.7635C38.0724 30.1286 38.2585 30.696 38.2585 31.4659L38.2585 35.8466L37.2528 35.8466L37.2528 31.4659C37.2528 30.983 37.1207 30.6378 36.8565 30.4304C36.5923 30.223 36.2813 30.1193 35.9233 30.1193C35.4631 30.1193 35.1065 30.2578 34.8537 30.5348C34.6009 30.8118 34.4744 31.162 34.4744 31.5853L34.4744 35.8466L33.4517 35.8466L33.4517 31.3637C33.4517 30.9915 33.331 30.6911 33.0895 30.4624C32.848 30.2337 32.5369 30.1193 32.1563 30.1193C31.8949 30.1193 31.6513 30.1889 31.4254 30.3281C31.1996 30.4674 31.0178 30.6598 30.88 30.9056C30.7422 31.1513 30.6733 31.4347 30.6733 31.7557L30.6733 35.8466L29.6676 35.8466ZM26.821 35.8466L26.821 29.3012L27.8267 29.3012L27.8267 35.8466L26.821 35.8466ZM27.3324 28.2103C27.1364 28.2103 26.968 28.1435 26.8274 28.01C26.6868 27.8764 26.6165 27.7159 26.6165 27.5284C26.6165 27.3409 26.6868 27.1804 26.8274 27.0469C26.968 26.9134 27.1364 26.8466 27.3324 26.8466C27.5284 26.8466 27.6967 26.9134 27.8374 27.0469C27.978 27.1804 28.0483 27.3409 28.0483 27.5284C28.0483 27.7159 27.978 27.8764 27.8374 28.01C27.6967 28.1435 27.5284 28.2103 27.3324 28.2103L27.3324 28.2103ZM20.7358 31.9091L20.7358 35.8466L19.7301 35.8466L19.7301 27.1193L20.7358 27.1193L20.7358 30.3239L20.821 30.3239C20.9744 29.9858 21.2053 29.7166 21.5135 29.5164C21.8217 29.3161 22.233 29.2159 22.7472 29.2159C23.4176 29.2159 23.9574 29.4176 24.3665 29.821C24.7756 30.2245 24.9801 30.8466 24.9801 31.6875L24.9801 35.8466L23.9744 35.8466L23.9744 31.7557C23.9744 31.2358 23.8402 30.8331 23.5717 30.5476C23.3033 30.2621 22.9318 30.1193 22.4574 30.1193C21.9602 30.1193 21.549 30.2749 21.2237 30.586C20.8984 30.897 20.7358 31.3381 20.7358 31.9091L20.7358 31.9091ZM14.8892 36C14.4744 36 14.098 35.9212 13.7599 35.7635C13.4219 35.6058 13.1534 35.3772 12.9545 35.0774C12.7557 34.7777 12.6562 34.4148 12.6562 33.9887C12.6562 33.6137 12.7301 33.309 12.8778 33.0746C13.0256 32.8402 13.223 32.6563 13.4702 32.5228C13.7173 32.3892 13.9908 32.2891 14.2905 32.2223C14.5902 32.1556 14.892 32.1023 15.196 32.0625C15.5937 32.0114 15.9169 31.9723 16.1655 31.9453C16.4141 31.9183 16.5959 31.8722 16.7109 31.8068C16.826 31.7415 16.8835 31.6279 16.8835 31.4659L16.8835 31.4318C16.8835 31.0114 16.7692 30.6847 16.5405 30.4517C16.3118 30.2188 15.9659 30.1023 15.5028 30.1023C15.0227 30.1023 14.6463 30.2074 14.3736 30.4176C14.1009 30.6279 13.9091 30.8523 13.7983 31.0909L12.8437 30.75C13.0142 30.3523 13.2422 30.0419 13.5277 29.8189C13.8132 29.5959 14.1257 29.4397 14.4652 29.3502C14.8047 29.2607 15.1392 29.2159 15.4687 29.2159C15.679 29.2159 15.9212 29.2408 16.1953 29.2905C16.4695 29.3402 16.7351 29.4418 16.9922 29.5952C17.2493 29.7486 17.4631 29.9801 17.6335 30.2898C17.804 30.5995 17.8892 31.0142 17.8892 31.5341L17.8892 35.8466L16.8835 35.8466L16.8835 34.9603L16.8324 34.9603C16.7642 35.1023 16.6506 35.2543 16.4915 35.4162C16.3324 35.5781 16.1207 35.7159 15.8565 35.8296C15.5923 35.9432 15.2699 36 14.8892 36L14.8892 36ZM15.0426 35.0966C15.4403 35.0966 15.7763 35.0185 16.0504 34.8622C16.3246 34.706 16.532 34.5043 16.6726 34.2571C16.8132 34.01 16.8835 33.75 16.8835 33.4773L16.8835 32.5568C16.8409 32.608 16.7479 32.6541 16.6044 32.6953C16.4609 32.7365 16.2962 32.772 16.1101 32.8019C15.924 32.8317 15.7436 32.8573 15.5689 32.8786C15.3942 32.8999 15.2528 32.9176 15.1449 32.9318C14.8835 32.9659 14.6399 33.0206 14.4141 33.0959C14.1882 33.1712 14.0064 33.2834 13.8686 33.4326C13.7308 33.5817 13.6619 33.7841 13.6619 34.0398C13.6619 34.3892 13.7919 34.6527 14.0518 34.8303C14.3118 35.0078 14.642 35.0966 15.0426 35.0966L15.0426 35.0966Z" id="Fahim" fill="#FFFFFF" stroke="none" />
    <g id="Icon" clip-path="url(#clip_1)" transform="translate(31 3)">
      <path d="M0 0L15 0L15 15L0 15L0 0Z" id="Icon" fill="none" fill-rule="evenodd" stroke="none" />
      <path d="M8.20312 2.11807C8.11231 2.11807 8.02154 2.15044 7.95708 2.21489L1.6523 8.50777C1.51167 8.64839 1.51167 8.87119 1.6523 9.0001L2.64839 9.99619C2.7187 10.0665 2.80069 10.1015 2.89444 10.1015C2.98819 10.1015 3.08212 10.0665 3.14072 9.99619L8.23272 6.15866L11.9531 8.69523L11.9531 13.418C11.6133 13.5352 11.3554 13.8281 11.2734 14.1797L9.84375 14.1797L9.84375 9.375C9.84375 9.17579 9.69141 9.02345 9.4922 9.02345L6.91406 9.02345C6.71484 9.02345 6.5625 9.17579 6.5625 9.375L6.5625 14.1797L4.45313 14.1797L4.45313 11.0156C4.45313 10.8164 4.30078 10.6641 4.10156 10.6641C3.90234 10.6641 3.75 10.8164 3.75 11.0156L3.75 11.8829C3.17578 12.0235 2.73056 12.4688 2.61337 13.0431C2.03915 13.1603 1.58208 13.6172 1.45317 14.1797L0.468751 14.1797C0.269531 14.1797 0.117188 14.332 0.117188 14.5313C0.117188 14.7305 0.269531 14.8828 0.468751 14.8828L11.6016 14.8828C11.8008 14.8828 11.9531 14.7305 11.9531 14.5313L11.9531 14.4141C11.9531 14.2148 12.1055 14.0625 12.3047 14.0625C12.5039 14.0625 12.6562 14.2148 12.6562 14.4141L12.6562 14.5313C12.6562 14.7305 12.8086 14.8828 13.0078 14.8828L13.3594 14.8828C13.5586 14.8828 13.7109 14.7305 13.7109 14.5313C13.7109 14.332 13.5586 14.1797 13.3594 14.1797L13.336 14.1797C13.254 13.8281 12.9961 13.5352 12.6562 13.418L12.6562 9.39835L13.2539 9.99619C13.3242 10.0665 13.4062 10.1015 13.4999 10.1015C13.5937 10.1015 13.6876 10.0665 13.7462 9.99619L14.7423 9.0001C14.8829 8.85947 14.8829 8.63668 14.7423 8.50777L8.44917 2.21489C8.38472 2.15044 8.29394 2.11807 8.20312 2.11807L8.20312 2.11807ZM8.20313 2.96494L14.0039 8.76572L13.5118 9.25781L8.44918 4.20708C8.37887 4.13676 8.29689 4.10156 8.20313 4.10156C8.10939 4.10156 8.0274 4.13676 7.9571 4.20708L2.89444 9.25781L2.40234 8.76572L8.20313 2.96494L8.20313 2.96494ZM7.5 11.8359C7.69922 11.8359 7.85156 11.9883 7.85156 12.1875C7.85156 12.3867 7.69922 12.5391 7.5 12.5391C7.30078 12.5391 7.14844 12.3867 7.14844 12.1875C7.14844 11.9883 7.30078 11.8359 7.5 11.8359L7.5 11.8359ZM3.75 12.621L3.75 14.1797L2.19131 14.1797C2.32022 13.8984 2.60156 13.7109 2.92969 13.7109C3.12891 13.7109 3.28125 13.5586 3.28125 13.3594C3.28125 13.0312 3.46875 12.7499 3.75 12.621L3.75 12.621ZM14.5313 14.1797C14.3371 14.1797 14.1797 14.3371 14.1797 14.5313C14.1797 14.7254 14.3371 14.8828 14.5313 14.8828C14.7254 14.8828 14.8828 14.7254 14.8828 14.5313C14.8828 14.3371 14.7254 14.1797 14.5313 14.1797L14.5313 14.1797Z" id="Shape" fill="#FC4850" fill-rule="evenodd" stroke="none" />
    </g>
    <path d="M13 15L16 15L16 18L13 18L13 15Z" id="Rectangle-2" fill="#FFC107" fill-rule="evenodd" stroke="none" />
    <path d="M19 15L22 15L22 18L19 18L19 15Z" id="Rectangle-2-Copy" fill="#FFC107" fill-rule="evenodd" stroke="none" />
  </g>
</svg>