<?xml version="1.0" encoding="utf-8"?>
<svg width="324px" height="323px" viewBox="0 0 324 323" version="1.1" xmlns:xlink="http://www.w3.org/1999/xlink" xmlns="http://www.w3.org/2000/svg">
  <defs>
    <path d="M7.999 0L316.001 0Q316.197 0 316.393 0.00963514Q316.59 0.0192703 316.785 0.0385174Q316.98 0.0577644 317.175 0.0865771Q317.369 0.11539 317.562 0.153699Q317.754 0.192007 317.945 0.23972Q318.135 0.287433 318.323 0.344434Q318.511 0.401436 318.696 0.467589Q318.881 0.533742 319.062 0.608888Q319.243 0.684033 319.421 0.76799Q319.599 0.851946 319.772 0.944512Q319.945 1.03708 320.113 1.13803Q320.282 1.23898 320.445 1.34807Q320.608 1.45717 320.766 1.57414Q320.924 1.69112 321.076 1.81569Q321.227 1.94026 321.373 2.07213Q321.518 2.204 321.657 2.34285Q321.796 2.4817 321.928 2.6272Q322.06 2.7727 322.184 2.92449Q322.309 3.07628 322.426 3.234Q322.543 3.39172 322.652 3.55499Q322.761 3.71826 322.862 3.88669Q322.963 4.05512 323.055 4.2283Q323.148 4.40148 323.232 4.57899Q323.316 4.7565 323.391 4.93791Q323.466 5.11933 323.532 5.30422Q323.599 5.4891 323.656 5.67701Q323.713 5.86492 323.76 6.0554Q323.808 6.24588 323.846 6.43847Q323.885 6.63106 323.913 6.8253Q323.942 7.01954 323.961 7.21496Q323.981 7.41038 323.99 7.60651Q324 7.80264 324 7.999L324 315.001Q324 315.197 323.99 315.393Q323.981 315.59 323.961 315.785Q323.942 315.98 323.913 316.175Q323.885 316.369 323.846 316.561Q323.808 316.754 323.76 316.945Q323.713 317.135 323.656 317.323Q323.599 317.511 323.532 317.696Q323.466 317.881 323.391 318.062Q323.316 318.243 323.232 318.421Q323.148 318.598 323.055 318.772Q322.963 318.945 322.862 319.113Q322.761 319.282 322.652 319.445Q322.543 319.608 322.426 319.766Q322.309 319.924 322.184 320.076Q322.06 320.227 321.928 320.373Q321.796 320.518 321.657 320.657Q321.518 320.796 321.373 320.928Q321.227 321.06 321.076 321.184Q320.924 321.309 320.766 321.426Q320.608 321.543 320.445 321.652Q320.282 321.761 320.113 321.862Q319.945 321.963 319.772 322.055Q319.599 322.148 319.421 322.232Q319.243 322.316 319.062 322.391Q318.881 322.466 318.696 322.532Q318.511 322.599 318.323 322.656Q318.135 322.713 317.945 322.76Q317.754 322.808 317.562 322.846Q317.369 322.885 317.175 322.913Q316.98 322.942 316.785 322.961Q316.59 322.981 316.393 322.99Q316.197 323 316.001 323L7.999 323Q7.80264 323 7.60651 322.99Q7.41038 322.981 7.21496 322.961Q7.01954 322.942 6.8253 322.913Q6.63106 322.885 6.43847 322.846Q6.24588 322.808 6.0554 322.76Q5.86492 322.713 5.67701 322.656Q5.4891 322.599 5.30422 322.532Q5.11933 322.466 4.93791 322.391Q4.7565 322.316 4.57899 322.232Q4.40148 322.148 4.2283 322.055Q4.05512 321.963 3.88669 321.862Q3.71826 321.761 3.55499 321.652Q3.39172 321.543 3.234 321.426Q3.07628 321.309 2.92449 321.184Q2.7727 321.06 2.6272 320.928Q2.4817 320.796 2.34285 320.657Q2.204 320.518 2.07213 320.373Q1.94026 320.227 1.81569 320.076Q1.69112 319.924 1.57414 319.766Q1.45717 319.608 1.34807 319.445Q1.23898 319.282 1.13803 319.113Q1.03708 318.945 0.944512 318.772Q0.851946 318.598 0.76799 318.421Q0.684033 318.243 0.608888 318.062Q0.533742 317.881 0.467589 317.696Q0.401436 317.511 0.344434 317.323Q0.287433 317.135 0.23972 316.945Q0.192007 316.754 0.153699 316.561Q0.11539 316.369 0.0865771 316.175Q0.0577644 315.98 0.0385174 315.785Q0.0192703 315.59 0.00963514 315.393Q0 315.197 0 315.001L0 7.999Q0 7.80264 0.00963514 7.60651Q0.0192703 7.41038 0.0385174 7.21496Q0.0577644 7.01954 0.0865771 6.8253Q0.11539 6.63106 0.153699 6.43847Q0.192007 6.24588 0.23972 6.0554Q0.287433 5.86492 0.344434 5.67701Q0.401436 5.4891 0.467589 5.30422Q0.533742 5.11933 0.608888 4.93791Q0.684033 4.7565 0.76799 4.57899Q0.851946 4.40148 0.944512 4.2283Q1.03708 4.05512 1.13803 3.88669Q1.23898 3.71826 1.34807 3.55499Q1.45717 3.39172 1.57414 3.234Q1.69112 3.07628 1.81569 2.92449Q1.94026 2.7727 2.07213 2.6272Q2.204 2.4817 2.34285 2.34285Q2.4817 2.204 2.6272 2.07213Q2.7727 1.94026 2.92449 1.81569Q3.07628 1.69112 3.234 1.57414Q3.39172 1.45717 3.55499 1.34807Q3.71826 1.23898 3.88669 1.13803Q4.05512 1.03708 4.2283 0.944512Q4.40148 0.851946 4.57899 0.76799Q4.7565 0.684033 4.93791 0.608888Q5.11933 0.533742 5.30422 0.467589Q5.4891 0.401436 5.67701 0.344434Q5.86492 0.287433 6.0554 0.23972Q6.24588 0.192007 6.43847 0.153699Q6.63106 0.11539 6.8253 0.0865771Q7.01954 0.0577644 7.21496 0.0385174Q7.41038 0.0192703 7.60651 0.00963514Q7.80264 0 7.999 0L7.999 0Z" id="path_1" />
    <clipPath id="mask_1">
      <use xlink:href="#path_1" />
    </clipPath>
  </defs>
  <g id="Group" transform="translate(241 187)">
    <g id="Fahim-badel-Mask">
      <path d="M7.999 0L316.001 0Q316.197 0 316.393 0.00963514Q316.59 0.0192703 316.785 0.0385174Q316.98 0.0577644 317.175 0.0865771Q317.369 0.11539 317.562 0.153699Q317.754 0.192007 317.945 0.23972Q318.135 0.287433 318.323 0.344434Q318.511 0.401436 318.696 0.467589Q318.881 0.533742 319.062 0.608888Q319.243 0.684033 319.421 0.76799Q319.599 0.851946 319.772 0.944512Q319.945 1.03708 320.113 1.13803Q320.282 1.23898 320.445 1.34807Q320.608 1.45717 320.766 1.57414Q320.924 1.69112 321.076 1.81569Q321.227 1.94026 321.373 2.07213Q321.518 2.204 321.657 2.34285Q321.796 2.4817 321.928 2.6272Q322.06 2.7727 322.184 2.92449Q322.309 3.07628 322.426 3.234Q322.543 3.39172 322.652 3.55499Q322.761 3.71826 322.862 3.88669Q322.963 4.05512 323.055 4.2283Q323.148 4.40148 323.232 4.57899Q323.316 4.7565 323.391 4.93791Q323.466 5.11933 323.532 5.30422Q323.599 5.4891 323.656 5.67701Q323.713 5.86492 323.76 6.0554Q323.808 6.24588 323.846 6.43847Q323.885 6.63106 323.913 6.8253Q323.942 7.01954 323.961 7.21496Q323.981 7.41038 323.99 7.60651Q324 7.80264 324 7.999L324 315.001Q324 315.197 323.99 315.393Q323.981 315.59 323.961 315.785Q323.942 315.98 323.913 316.175Q323.885 316.369 323.846 316.561Q323.808 316.754 323.76 316.945Q323.713 317.135 323.656 317.323Q323.599 317.511 323.532 317.696Q323.466 317.881 323.391 318.062Q323.316 318.243 323.232 318.421Q323.148 318.598 323.055 318.772Q322.963 318.945 322.862 319.113Q322.761 319.282 322.652 319.445Q322.543 319.608 322.426 319.766Q322.309 319.924 322.184 320.076Q322.06 320.227 321.928 320.373Q321.796 320.518 321.657 320.657Q321.518 320.796 321.373 320.928Q321.227 321.06 321.076 321.184Q320.924 321.309 320.766 321.426Q320.608 321.543 320.445 321.652Q320.282 321.761 320.113 321.862Q319.945 321.963 319.772 322.055Q319.599 322.148 319.421 322.232Q319.243 322.316 319.062 322.391Q318.881 322.466 318.696 322.532Q318.511 322.599 318.323 322.656Q318.135 322.713 317.945 322.76Q317.754 322.808 317.562 322.846Q317.369 322.885 317.175 322.913Q316.98 322.942 316.785 322.961Q316.59 322.981 316.393 322.99Q316.197 323 316.001 323L7.999 323Q7.80264 323 7.60651 322.99Q7.41038 322.981 7.21496 322.961Q7.01954 322.942 6.8253 322.913Q6.63106 322.885 6.43847 322.846Q6.24588 322.808 6.0554 322.76Q5.86492 322.713 5.67701 322.656Q5.4891 322.599 5.30422 322.532Q5.11933 322.466 4.93791 322.391Q4.7565 322.316 4.57899 322.232Q4.40148 322.148 4.2283 322.055Q4.05512 321.963 3.88669 321.862Q3.71826 321.761 3.55499 321.652Q3.39172 321.543 3.234 321.426Q3.07628 321.309 2.92449 321.184Q2.7727 321.06 2.6272 320.928Q2.4817 320.796 2.34285 320.657Q2.204 320.518 2.07213 320.373Q1.94026 320.227 1.81569 320.076Q1.69112 319.924 1.57414 319.766Q1.45717 319.608 1.34807 319.445Q1.23898 319.282 1.13803 319.113Q1.03708 318.945 0.944512 318.772Q0.851946 318.598 0.76799 318.421Q0.684033 318.243 0.608888 318.062Q0.533742 317.881 0.467589 317.696Q0.401436 317.511 0.344434 317.323Q0.287433 317.135 0.23972 316.945Q0.192007 316.754 0.153699 316.561Q0.11539 316.369 0.0865771 316.175Q0.0577644 315.98 0.0385174 315.785Q0.0192703 315.59 0.00963514 315.393Q0 315.197 0 315.001L0 7.999Q0 7.80264 0.00963514 7.60651Q0.0192703 7.41038 0.0385174 7.21496Q0.0577644 7.01954 0.0865771 6.8253Q0.11539 6.63106 0.153699 6.43847Q0.192007 6.24588 0.23972 6.0554Q0.287433 5.86492 0.344434 5.67701Q0.401436 5.4891 0.467589 5.30422Q0.533742 5.11933 0.608888 4.93791Q0.684033 4.7565 0.76799 4.57899Q0.851946 4.40148 0.944512 4.2283Q1.03708 4.05512 1.13803 3.88669Q1.23898 3.71826 1.34807 3.55499Q1.45717 3.39172 1.57414 3.234Q1.69112 3.07628 1.81569 2.92449Q1.94026 2.7727 2.07213 2.6272Q2.204 2.4817 2.34285 2.34285Q2.4817 2.204 2.6272 2.07213Q2.7727 1.94026 2.92449 1.81569Q3.07628 1.69112 3.234 1.57414Q3.39172 1.45717 3.55499 1.34807Q3.71826 1.23898 3.88669 1.13803Q4.05512 1.03708 4.2283 0.944512Q4.40148 0.851946 4.57899 0.76799Q4.7565 0.684033 4.93791 0.608888Q5.11933 0.533742 5.30422 0.467589Q5.4891 0.401436 5.67701 0.344434Q5.86492 0.287433 6.0554 0.23972Q6.24588 0.192007 6.43847 0.153699Q6.63106 0.11539 6.8253 0.0865771Q7.01954 0.0577644 7.21496 0.0385174Q7.41038 0.0192703 7.60651 0.00963514Q7.80264 0 7.999 0L7.999 0Z" id="Mask" fill="#FFECB3" fill-rule="evenodd" stroke="none" />
      <g clip-path="url(#mask_1)">
        <g id="Fahim-badel" transform="translate(40.5 40.5)">
          <g id="Fahim-" fill="#FAE800">
            <path d="M140.455 65.0455Q138.886 65.0455 137.761 63.9773Q136.636 62.9091 136.636 61.4091Q136.636 59.9091 137.761 58.8409Q138.886 57.7727 140.455 57.7727Q142.023 57.7727 143.148 58.8409Q144.273 59.9091 144.273 61.4091Q144.273 62.9091 143.148 63.9773Q142.023 65.0455 140.455 65.0455ZM27 105.773L27 59.2273L54.9091 59.2273L54.9091 64.2273L32.6364 64.2273L32.6364 79.9545L52.8182 79.9545L52.8182 84.9545L32.6364 84.9545L32.6364 105.773L27 105.773ZM105.273 105.773L105.273 84.7727Q105.273 80.2045 107.875 77.7159Q110.477 75.2273 114.455 75.2273Q118.25 75.2273 120.398 77.5114Q122.545 79.7955 122.545 83.9545L122.545 105.773L127.909 105.773L127.909 83.5909Q127.909 76.8636 124.636 73.6364Q121.364 70.4091 116 70.4091Q111.886 70.4091 109.42 72.0114Q106.955 73.6136 105.727 76.3182L105.273 76.3182L105.273 59.2273L99.9091 59.2273L99.9091 105.773L105.273 105.773ZM74.0909 106.591Q70.7727 106.591 68.0682 105.33Q65.3636 104.068 63.7727 101.67Q62.1818 99.2727 62.1818 95.8636Q62.1818 92.8636 63.3636 90.9886Q64.5455 89.1136 66.5227 88.0455Q68.5 86.9773 70.8977 86.4432Q73.2955 85.9091 75.7273 85.5909Q78.9091 85.1818 80.8977 84.9659Q82.8864 84.75 83.8068 84.2273Q84.7273 83.7045 84.7273 82.4091L84.7273 82.2273Q84.7273 78.8636 82.8977 77Q81.0682 75.1364 77.3636 75.1364Q73.5227 75.1364 71.3409 76.8182Q69.1591 78.5 68.2727 80.4091L63.1818 78.5909Q64.5455 75.4091 66.8296 73.625Q69.1136 71.8409 71.8296 71.125Q74.5455 70.4091 77.1818 70.4091Q78.8636 70.4091 81.0568 70.8068Q83.25 71.2045 85.3068 72.4318Q87.3636 73.6591 88.7273 76.1364Q90.0909 78.6136 90.0909 82.7727L90.0909 105.773L84.7273 105.773L84.7273 101.045L84.4546 101.045Q83.9091 102.182 82.6364 103.477Q81.3636 104.773 79.25 105.682Q77.1364 106.591 74.0909 106.591ZM152.909 70.8636L152.909 105.773L158.273 105.773L158.273 83.9545Q158.273 81.3864 159.375 79.4205Q160.477 77.4546 162.284 76.3409Q164.091 75.2273 166.182 75.2273Q169.227 75.2273 171.159 77.0568Q173.091 78.8864 173.091 81.8636L173.091 105.773L178.545 105.773L178.545 83.0455Q178.545 79.6591 180.568 77.4432Q182.591 75.2273 186.273 75.2273Q189.136 75.2273 191.25 76.8864Q193.364 78.5455 193.364 82.4091L193.364 105.773L198.727 105.773L198.727 82.4091Q198.727 76.25 195.75 73.3295Q192.773 70.4091 188.091 70.4091Q184.341 70.4091 181.659 72.0114Q178.977 73.6136 177.636 76.3182L177.273 76.3182Q175.977 73.5227 173.67 71.9659Q171.364 70.4091 167.909 70.4091Q164.5 70.4091 162.068 71.9659Q159.636 73.5227 158.545 76.3182L158.091 76.3182L158.091 70.8636L152.909 70.8636ZM137.727 105.773L137.727 70.8636L143.091 70.8636L143.091 105.773L137.727 105.773ZM74.9091 101.773Q78.0909 101.773 80.2841 100.523Q82.4773 99.2727 83.6023 97.2955Q84.7273 95.3182 84.7273 93.1364L84.7273 88.2273Q84.3864 88.6364 83.2386 88.9659Q82.0909 89.2955 80.6023 89.5341Q79.1136 89.7727 77.7159 89.9432Q76.3182 90.1136 75.4546 90.2273Q73.3636 90.5 71.5568 91.1023Q69.75 91.7045 68.6477 92.8977Q67.5455 94.0909 67.5455 96.1364Q67.5455 98.9318 69.625 100.352Q71.7046 101.773 74.9091 101.773Z" />
          </g>
          <g id="badel" fill="#FAE800">
            <path d="M43.1364 182.773L43.1364 136.227L48.5 136.227L48.5 153.409L48.9545 153.409Q49.5455 152.5 50.6023 151.08Q51.6591 149.659 53.6477 148.534Q55.6364 147.409 59.0455 147.409Q63.4545 147.409 66.8182 149.614Q70.1818 151.818 72.0682 155.864Q73.9545 159.909 73.9545 165.409Q73.9545 170.955 72.0682 175.011Q70.1818 179.068 66.8409 181.284Q63.5 183.5 59.1364 183.5Q55.7727 183.5 53.75 182.375Q51.7273 181.25 50.6364 179.807Q49.5455 178.364 48.9545 177.409L48.3182 177.409L48.3182 182.773L43.1364 182.773ZM123.705 181.284Q127.045 183.5 131.409 183.5Q134.773 183.5 136.795 182.375Q138.818 181.25 139.909 179.807Q141 178.364 141.591 177.409L142.227 177.409L142.227 182.773L147.409 182.773L147.409 136.227L142.045 136.227L142.045 153.409L141.591 153.409Q141 152.5 139.943 151.08Q138.886 149.659 136.898 148.534Q134.909 147.409 131.5 147.409Q127.091 147.409 123.727 149.614Q120.364 151.818 118.477 155.864Q116.591 159.909 116.591 165.409Q116.591 170.955 118.477 175.011Q120.364 179.068 123.705 181.284ZM200.591 182.773L200.591 136.227L195.227 136.227L195.227 182.773L200.591 182.773ZM92.4091 183.591Q89.0909 183.591 86.3864 182.33Q83.6818 181.068 82.0909 178.67Q80.5 176.273 80.5 172.864Q80.5 169.864 81.6818 167.989Q82.8636 166.114 84.8409 165.045Q86.8182 163.977 89.2159 163.443Q91.6136 162.909 94.0455 162.591Q97.2273 162.182 99.2159 161.966Q101.205 161.75 102.125 161.227Q103.045 160.705 103.045 159.409L103.045 159.227Q103.045 155.864 101.216 154Q99.3864 152.136 95.6818 152.136Q91.8409 152.136 89.6591 153.818Q87.4773 155.5 86.5909 157.409L81.5 155.591Q82.8636 152.409 85.1477 150.625Q87.4318 148.841 90.1477 148.125Q92.8636 147.409 95.5 147.409Q97.1818 147.409 99.375 147.807Q101.568 148.205 103.625 149.432Q105.682 150.659 107.045 153.136Q108.409 155.614 108.409 159.773L108.409 182.773L103.045 182.773L103.045 178.045L102.773 178.045Q102.227 179.182 100.955 180.477Q99.6818 181.773 97.5682 182.682Q95.4545 183.591 92.4091 183.591ZM172.591 183.5Q167.545 183.5 163.898 181.261Q160.25 179.023 158.284 174.989Q156.318 170.955 156.318 165.591Q156.318 160.227 158.284 156.125Q160.25 152.023 163.784 149.716Q167.318 147.409 172.045 147.409Q174.773 147.409 177.432 148.318Q180.091 149.227 182.273 151.261Q184.455 153.295 185.75 156.636Q187.045 159.977 187.045 164.864L187.045 167.136L161.705 167.136Q161.886 172.727 164.875 175.705Q167.864 178.682 172.591 178.682Q175.75 178.682 178.023 177.318Q180.295 175.955 181.318 173.227L186.5 174.682Q185.273 178.636 181.591 181.068Q177.909 183.5 172.591 183.5ZM48.4091 165.318Q48.4091 171.25 50.9886 174.966Q53.5682 178.682 58.4091 178.682Q61.7727 178.682 64.0341 176.898Q66.2955 175.114 67.4432 172.08Q68.5909 169.045 68.5909 165.318Q68.5909 161.636 67.4659 158.67Q66.3409 155.705 64.0795 153.966Q61.8182 152.227 58.4091 152.227Q53.5 152.227 50.9545 155.841Q48.4091 159.455 48.4091 165.318ZM139.557 174.966Q136.977 178.682 132.136 178.682Q128.773 178.682 126.511 176.898Q124.25 175.114 123.102 172.08Q121.955 169.045 121.955 165.318Q121.955 161.636 123.08 158.67Q124.205 155.705 126.466 153.966Q128.727 152.227 132.136 152.227Q137.045 152.227 139.591 155.841Q142.136 159.455 142.136 165.318Q142.136 171.25 139.557 174.966ZM161.705 162.5L181.591 162.5Q181.591 158.068 179 155.148Q176.409 152.227 172.045 152.227Q168.977 152.227 166.727 153.659Q164.477 155.091 163.182 157.443Q161.886 159.795 161.705 162.5ZM93.2273 178.773Q96.4091 178.773 98.6023 177.523Q100.795 176.273 101.92 174.295Q103.045 172.318 103.045 170.136L103.045 165.227Q102.705 165.636 101.557 165.966Q100.409 166.295 98.9205 166.534Q97.4318 166.773 96.0341 166.943Q94.6364 167.114 93.7727 167.227Q91.6818 167.5 89.875 168.102Q88.0682 168.705 86.9659 169.898Q85.8636 171.091 85.8636 173.136Q85.8636 175.932 87.9432 177.352Q90.0227 178.773 93.2273 178.773Z" />
          </g>
        </g>
      </g>
    </g>
  </g>
</svg>